<?xml version="1.0" standalone="no"?><!DOCTYPE svg PUBLIC "-//W3C//DTD SVG 1.1//EN" "http://www.w3.org/Graphics/SVG/1.1/DTD/svg11.dtd"><svg t="1495445933526" class="icon" style="" viewBox="0 0 1024 1024" version="1.1" xmlns="http://www.w3.org/2000/svg" p-id="7901" xmlns:xlink="http://www.w3.org/1999/xlink" width="48" height="48"><defs><style type="text/css"></style></defs><path d="M512 0C230.4 0 0 230.4 0 512s230.4 512 512 512 512-230.4 512-512S793.6 0 512 0z m0 963.2C262.4 963.2 60.8 761.6 60.8 512S262.4 60.8 512 60.8 963.2 262.4 963.2 512 761.6 963.2 512 963.2z" p-id="7902" fill="#bfbfbf"></path><path d="M739.2 297.6l-320 294.4-128-102.4c-19.2-19.2-35.2-9.6-41.6-6.4-22.4 16-3.2 41.6-3.2 41.6l144 195.2c28.8 35.2 54.4 0 54.4 0l332.8-390.4c16-19.2 9.6-32 3.2-38.4-19.2-12.8-41.6 6.4-41.6 6.4z" p-id="7903" fill="#bfbfbf"></path></svg>